<svg width="231" height="230" viewBox="0 0 231 230" fill="none" xmlns="http://www.w3.org/2000/svg">
<g clip-path="url(#clip0_76:675)">
<path d="M115.606 0C52.1698 0 0.746094 51.4237 0.746094 114.86C0.746094 178.296 52.1698 229.72 115.606 229.72C179.042 229.72 230.466 178.296 230.466 114.86C230.466 51.4237 179.042 0 115.606 0ZM147.322 109.868L101.665 155.525L101.641 155.501L99.0997 158.033L99.0662 158.004L99.0327 158.033L93.3375 152.347L93.371 152.309L56.2378 115.176L66.7427 104.671L99.1332 137.071L136.822 99.3777L136.778 99.3347L164.421 71.6869L174.955 82.2253L147.322 109.868Z" fill="#191919"/>
</g>
<defs>
<clipPath id="clip0_76:675">
<rect width="229.72" height="229.72" fill="white" transform="translate(0.746094)"/>
</clipPath>
</defs>
</svg>
